<svg width="302px" height="302px" viewBox="0 0 302 302" version="1.1" xmlns="http://www.w3.org/2000/svg" xmlns:xlink="http://www.w3.org/1999/xlink">
    <!-- Generator: Sketch 48.2 (47327) - http://www.bohemiancoding.com/sketch -->
    <desc>Created with Sketch.</desc>
    <defs></defs>
    <g id="Page-1" stroke="none" stroke-width="1" fill="none" fill-rule="evenodd">
        <g id="Compass" transform="translate(1.000000, 1.000000)">
            <g id="Compass-NESW">
                <circle id="Oval-2" stroke="#B0BEC5" stroke-dasharray="1,1,1" cx="150" cy="150" r="150"></circle>
                <polygon id="W" fill="#ECEFF1" points="16.2290039 141.588867 18.6635742 152.091797 21.581543 141.588867 23.4799805 141.588867 26.3979492 152.091797 28.8325195 141.588867 30.7485352 141.588867 27.355957 154.5 25.519043 154.5 22.5395508 143.794922 19.5424805 154.5 17.7055664 154.5 14.3305664 141.588867"></polygon>
                <polygon id="N" fill="#C62828" points="144.871582 15.5888672 147.271174 15.5888672 154.847756 27.7399904 154.847756 15.5888672 156.777641 15.5888672 156.777641 30.5888672 154.500581 30.5888672 146.811677 18.447955 146.811677 30.5888672 144.871582 30.5888672"></polygon>
                <polygon id="E" fill="#ECEFF1" points="273.035156 141.588867 282.448242 141.588867 282.448242 143.170898 274.740234 143.170898 274.740234 147.09082 281.868164 147.09082 281.868164 148.584961 274.740234 148.584961 274.740234 152.961914 282.580078 152.961914 282.580078 154.5 273.035156 154.5"></polygon>
                <path d="M146.510742,279.333984 C146.551758,280.06641 146.724608,280.661131 147.029297,281.118164 C147.609378,281.973637 148.631829,282.401367 150.09668,282.401367 C150.752933,282.401367 151.350583,282.307618 151.889648,282.120117 C152.932622,281.756834 153.454102,281.10645 153.454102,280.168945 C153.454102,279.465817 153.234377,278.964845 152.794922,278.666016 C152.349607,278.373045 151.652348,278.118165 150.703125,277.901367 L148.954102,277.505859 C147.811518,277.248046 147.002932,276.963869 146.52832,276.65332 C145.708004,276.114255 145.297852,275.308599 145.297852,274.236328 C145.297852,273.076166 145.699215,272.124027 146.501953,271.379883 C147.304692,270.635738 148.441399,270.263672 149.912109,270.263672 C151.265632,270.263672 152.415523,270.590329 153.361816,271.243652 C154.30811,271.896976 154.78125,272.941399 154.78125,274.376953 L153.137695,274.376953 C153.049804,273.685543 152.862306,273.155275 152.575195,272.786133 C152.04199,272.112301 151.136725,271.775391 149.859375,271.775391 C148.82812,271.775391 148.086916,271.992185 147.635742,272.425781 C147.184568,272.859377 146.958984,273.363278 146.958984,273.9375 C146.958984,274.570316 147.222654,275.033202 147.75,275.326172 C148.095705,275.513673 148.877924,275.748045 150.09668,276.029297 L151.907227,276.442383 C152.780278,276.641603 153.454099,276.914061 153.928711,277.259766 C154.749028,277.863284 155.15918,278.739252 155.15918,279.887695 C155.15918,281.31739 154.639165,282.339841 153.599121,282.955078 C152.559077,283.570316 151.350593,283.87793 149.973633,283.87793 C148.368156,283.87793 147.111333,283.467778 146.203125,282.647461 C145.294917,281.833004 144.849609,280.728523 144.867187,279.333984 L146.510742,279.333984 Z" id="S" fill="#ECEFF1"></path>
            </g>
        </g>
    </g>
</svg>
